<svg xmlns="http://www.w3.org/2000/svg" width="376.3" height="384.7" viewBox="0 0 376.3 384.7"><path d="M188 82.4l94.9 54.8v109.6L188 301.6l-94.9-54.8V137.2L188 82.4z"/><path fill="#fff" d="M132.9 232.5a1.8 1.8 0 0 1 0-3.6h9v-11.3h-9a1.7 1.7 0 0 1-1.8-1.8v-35.5a1.7 1.7 0 0 1 1.8-1.8h11.9c.9-25.6 20-39.6 43.2-39.6s42.3 14 43.2 39.6h11.9a1.7 1.7 0 0 1 1.8 1.8v35.5a1.7 1.7 0 0 1-1.8 1.8h-9v11.3h9a1.8 1.8 0 1 1 0 3.6zm1.8-50.4V214h106.6v-31.9zm10.8 35.5v11.3H157v-11.3zm2.9-39.1h79.2c-.9-23.2-18.5-36-39.6-36s-38.7 12.8-39.6 36zm12.2 39.1v11.3h18v-11.3zm21.6 0v11.3h11.6v-11.3zm48.8-12.3h-43.9a1.8 1.8 0 1 1 0-3.6H231a1.8 1.8 0 0 1 0 3.6zm-33.6 12.3v11.3h18v-11.3zm21.6 0v11.3h11.5v-11.3z"/></svg>